# xmcd
#
# Track frame offsets:
# 150
# 13461
# 34214
# 50207
# 72328
# 87315
# 101967
# 123896
# 143493
# 154551
# 168631
# 189821
# 204810
# 219746
#
# Disc length: 3151 seconds
#
#
# Revision: 1
# Processed by: cddbd v1.5.2PL0 Copyright (c) Steve Scherf et al.
# Submitted via: FreeRIP 2.942 
#
DISCID=c70c4d0e
DTITLE=Léo Magalhães - Volume 4
DYEAR=1900
DGENRE=Forró
TTITLE0=Só Penso Em Você(always On My Mind)
TTITLE1=Preciso de Um Tempo
TTITLE2=Na Hora H
TTITLE3=Vivendo Por Viver
TTITLE4=Dois Corações e Uma História
TTITLE5=Solidão a Três
TTITLE6=Preciso Ser Amado
TTITLE7=O Amor Deixou A Gente
TTITLE8=Domingo Legal
TTITLE9=Encara ou Pára
TTITLE10=Sufocado(drowling)
TTITLE11=Dá Pra Ver No Seu Olhar
TTITLE12=Uma Luz no Fim do Tunel
TTITLE13=Minha Menina
EXTD=
EXTT0=
EXTT1=
EXTT2=
EXTT3=
EXTT4=
EXTT5=
EXTT6=
EXTT7=
EXTT8=
EXTT9=
EXTT10=
EXTT11=
EXTT12=
EXTT13=
PLAYORDER=
